<?xml version="1.0" encoding="UTF-8"?>
<svg  viewBox="0 0 290 71" version="1.1" xmlns="http://www.w3.org/2000/svg" xmlns:xlink="http://www.w3.org/1999/xlink">
    <title>SetScore</title>
    <g id="Players-UI" stroke="none" stroke-width="1" fill="none" fill-rule="evenodd">
        <g id="Login-/-Desktop" transform="translate(-152.000000, -441.000000)" fill="#ffffff" fill-rule="nonzero">
            <g id="Header" transform="translate(150.000000, 423.000000)">
                <path d="M21.988,88.932 C29.532,88.932 35.7266667,86.8466667 40.572,82.676 C45.4173333,78.5053333 47.84,72.924 47.84,65.932 C47.84,62.1293333 47.0733333,58.6793333 45.54,55.582 C44.0066667,52.4846667 40.8173333,48.82 35.972,44.588 C32.292,41.3373333 29.9,38.746 28.796,36.814 C27.692,34.882 27.14,32.8426667 27.14,30.696 C27.14,28.0586667 27.8913333,26.004 29.394,24.532 C30.8966667,23.06 32.9666667,22.324 35.604,22.324 C37.812,22.324 39.4986667,22.8606667 40.664,23.934 C41.8293333,25.0073333 42.412,26.5253333 42.412,28.488 C42.412,30.0826667 42.0286667,31.616 41.262,33.088 C40.4953333,34.56 39.4986667,35.664 38.272,36.4 C38.824,37.0746667 39.4526667,37.5653333 40.158,37.872 C40.8633333,38.1786667 41.6453333,38.332 42.504,38.332 C44.7733333,38.332 46.598,37.4733333 47.978,35.756 C49.358,34.0386667 50.048,31.8 50.048,29.04 C50.048,25.4826667 48.7446667,22.7533333 46.138,20.852 C43.5313333,18.9506667 39.8973333,18 35.236,18 C29.2253333,18 24.1806667,19.564 20.102,22.692 C16.0233333,25.82 13.984,29.7453333 13.984,34.468 C13.984,36.7373333 14.5513333,38.9913333 15.686,41.23 C16.8206667,43.4686667 19.228,46.5506667 22.908,50.476 C26.956,54.892 29.624,58.4186667 30.912,61.056 C32.2,63.6933333 32.844,66.4533333 32.844,69.336 C32.844,73.0773333 31.8626667,76.052 29.9,78.26 C27.9373333,80.468 25.3613333,81.572 22.172,81.572 C19.4733333,81.572 17.3266667,80.744 15.732,79.088 C14.1373333,77.432 13.34,75.316 13.34,72.74 C13.34,70.0413333 14.3366667,67.9253333 16.33,66.392 C18.3233333,64.8586667 20.9146667,64.092 24.104,64.092 C23.9813333,62.1906667 23.184,60.7033333 21.712,59.63 C20.24,58.5566667 18.3386667,58.02 16.008,58.02 C12.2666667,58.02 9.07733333,59.4306667 6.44,62.252 C3.80266667,65.0733333 2.484,68.692 2.484,73.108 C2.484,78.1373333 4.232,82.032 7.728,84.792 C11.224,87.552 15.9773333,88.932 21.988,88.932 Z M64.6304872,87.462 C68.7884872,87.462 72.6128205,86.2941667 76.1034872,83.9585 C79.5941538,81.6228333 82.8281538,78.0423333 85.8054872,73.217 L85.8054872,73.217 L83.1874872,73.217 C80.5694872,76.1943333 78.2466538,78.2348333 76.2189872,79.3385 C74.1913205,80.4421667 71.9711538,80.994 69.5584872,80.994 C67.4538205,80.994 66.0036538,80.5063333 65.2079872,79.531 C64.4123205,78.5556667 64.0144872,76.8873333 64.0144872,74.526 C64.0144872,74.218 64.0273205,73.8458333 64.0529872,73.4095 C64.0786538,72.9731667 64.1171538,72.3186667 64.1684872,71.446 C68.9938205,71.1893333 73.1518205,69.4825 76.6424872,66.3255 C80.1331538,63.1685 81.8784872,59.4596667 81.8784872,55.199 C81.8784872,52.6836667 81.1726538,50.8228333 79.7609872,49.6165 C78.3493205,48.4101667 76.2318205,47.807 73.4084872,47.807 C70.1231538,47.807 67.1586538,48.5898333 64.5149872,50.1555 C61.8713205,51.7211667 59.5998205,54.044 57.7004872,57.124 C56.1604872,59.6906667 54.9284872,62.6166667 54.0044872,65.902 C53.0804872,69.1873333 52.6184872,72.293 52.6184872,75.219 C52.6184872,79.2743333 53.6323205,82.3286667 55.6599872,84.382 C57.6876538,86.4353333 60.6778205,87.462 64.6304872,87.462 Z M64.7844872,67.75 C65.6571538,63.3866667 66.9789872,59.6521667 68.7499872,56.5465 C70.5209872,53.4408333 72.2791538,51.888 74.0244872,51.888 C74.6918205,51.888 75.1794872,52.1446667 75.4874872,52.658 C75.7954872,53.1713333 75.9494872,53.967 75.9494872,55.045 C75.9494872,58.2276667 74.8329872,61.0895 72.5999872,63.6305 C70.3669872,66.1715 67.7618205,67.5446667 64.7844872,67.75 Z M91.8746667,87.462 C95.468,87.462 98.6506667,86.2556667 101.422667,83.843 C104.194667,81.4303333 106.402,77.8883333 108.044667,73.217 L108.044667,73.217 L104.810667,73.217 C104.194667,75.219 103.245,76.8488333 101.961667,78.1065 C100.678333,79.3641667 99.318,79.993 97.8806667,79.993 C96.7513333,79.993 95.9428333,79.7748333 95.4551667,79.3385 C94.9675,78.9021667 94.7236667,78.1706667 94.7236667,77.144 C94.7236667,76.7333333 94.7493333,76.3355 94.8006667,75.9505 C94.852,75.5655 94.929,75.142 95.0316667,74.68 L95.0316667,74.68 L99.9596667,51.58 L104.579667,51.58 L105.195667,48.5 L100.575667,48.5 L103.193667,36.334 L91.7976667,37.874 L89.4876667,48.5 L86.9466667,48.5 L86.3306667,51.58 L88.8716667,51.58 L84.2516667,73.217 C84.0463333,74.1923333 83.8923333,75.1035 83.7896667,75.9505 C83.687,76.7975 83.6356667,77.5546667 83.6356667,78.222 C83.6356667,81.148 84.3671667,83.4195 85.8301667,85.0365 C87.2931667,86.6535 89.308,87.462 91.8746667,87.462 Z M132.919179,88.932 C140.463179,88.932 146.657846,86.8466667 151.503179,82.676 C156.348513,78.5053333 158.771179,72.924 158.771179,65.932 C158.771179,62.1293333 158.004513,58.6793333 156.471179,55.582 C154.937846,52.4846667 151.748513,48.82 146.903179,44.588 C143.223179,41.3373333 140.831179,38.746 139.727179,36.814 C138.623179,34.882 138.071179,32.8426667 138.071179,30.696 C138.071179,28.0586667 138.822513,26.004 140.325179,24.532 C141.827846,23.06 143.897846,22.324 146.535179,22.324 C148.743179,22.324 150.429846,22.8606667 151.595179,23.934 C152.760513,25.0073333 153.343179,26.5253333 153.343179,28.488 C153.343179,30.0826667 152.959846,31.616 152.193179,33.088 C151.426513,34.56 150.429846,35.664 149.203179,36.4 C149.755179,37.0746667 150.383846,37.5653333 151.089179,37.872 C151.794513,38.1786667 152.576513,38.332 153.435179,38.332 C155.704513,38.332 157.529179,37.4733333 158.909179,35.756 C160.289179,34.0386667 160.979179,31.8 160.979179,29.04 C160.979179,25.4826667 159.675846,22.7533333 157.069179,20.852 C154.462513,18.9506667 150.828513,18 146.167179,18 C140.156513,18 135.111846,19.564 131.033179,22.692 C126.954513,25.82 124.915179,29.7453333 124.915179,34.468 C124.915179,36.7373333 125.482513,38.9913333 126.617179,41.23 C127.751846,43.4686667 130.159179,46.5506667 133.839179,50.476 C137.887179,54.892 140.555179,58.4186667 141.843179,61.056 C143.131179,63.6933333 143.775179,66.4533333 143.775179,69.336 C143.775179,73.0773333 142.793846,76.052 140.831179,78.26 C138.868513,80.468 136.292513,81.572 133.103179,81.572 C130.404513,81.572 128.257846,80.744 126.663179,79.088 C125.068513,77.432 124.271179,75.316 124.271179,72.74 C124.271179,70.0413333 125.267846,67.9253333 127.261179,66.392 C129.254513,64.8586667 131.845846,64.092 135.035179,64.092 C134.912513,62.1906667 134.115179,60.7033333 132.643179,59.63 C131.171179,58.5566667 129.269846,58.02 126.939179,58.02 C123.197846,58.02 120.008513,59.4306667 117.371179,62.252 C114.733846,65.0733333 113.415179,68.692 113.415179,73.108 C113.415179,78.1373333 115.163179,82.032 118.659179,84.792 C122.155179,87.552 126.908513,88.932 132.919179,88.932 Z M175.218543,87.462 C179.376543,87.462 183.200876,86.2941667 186.691543,83.9585 C190.18221,81.6228333 193.41621,78.0423333 196.393543,73.217 L196.393543,73.217 L193.775543,73.217 C191.157543,76.1943333 188.83471,78.2348333 186.807043,79.3385 C184.779376,80.4421667 182.55921,80.994 180.146543,80.994 C178.041876,80.994 176.59171,80.5063333 175.796043,79.531 C175.000376,78.5556667 174.602543,76.8873333 174.602543,74.526 C174.602543,69.8546667 175.680543,64.9138333 177.836543,59.7035 C179.992543,54.4931667 182.199876,51.888 184.458543,51.888 C185.17721,51.888 185.71621,52.1575 186.075543,52.6965 C186.434876,53.2355 186.614543,54.0183333 186.614543,55.045 C186.614543,55.7123333 186.537543,56.431 186.383543,57.201 C186.229543,57.971 185.998543,58.7666667 185.690543,59.588 C186.152543,59.896 186.614543,60.127 187.076543,60.281 C187.538543,60.435 187.974876,60.512 188.385543,60.512 C189.617543,60.512 190.60571,60.0115 191.350043,59.0105 C192.094376,58.0095 192.466543,56.6363333 192.466543,54.891 C192.466543,52.581 191.747876,50.8228333 190.310543,49.6165 C188.87321,48.4101667 186.742876,47.807 183.919543,47.807 C180.685543,47.807 177.74671,48.5898333 175.103043,50.1555 C172.459376,51.7211667 170.187876,54.044 168.288543,57.124 C166.69721,59.6906667 165.452376,62.6166667 164.554043,65.902 C163.65571,69.1873333 163.206543,72.293 163.206543,75.219 C163.206543,79.2743333 164.220376,82.3286667 166.248043,84.382 C168.27571,86.4353333 171.265876,87.462 175.218543,87.462 Z M206.004723,87.308 C210.881389,87.308 215.013723,85.1776667 218.401723,80.917 C221.789723,76.6563333 223.791723,71.061 224.407723,64.131 C227.282389,63.669 229.913223,62.8733333 232.300223,61.744 C234.687223,60.6146667 236.599389,59.28 238.036723,57.74 L238.036723,57.74 L237.343723,55.661 C235.444389,56.9956667 233.391056,58.0993333 231.183723,58.972 C228.976389,59.8446667 227.077056,60.281 225.485723,60.281 C225.280389,60.281 225.113556,60.2681667 224.985223,60.2425 C224.856889,60.2168333 224.741389,60.1783333 224.638723,60.127 C224.638723,56.0203333 223.817389,52.9403333 222.174723,50.887 C220.532056,48.8336667 218.068056,47.807 214.782723,47.807 C211.497389,47.807 208.520056,48.5898333 205.850723,50.1555 C203.181389,51.7211667 200.897056,54.0183333 198.997723,57.047 C197.355056,59.6136667 196.058889,62.5396667 195.109223,65.825 C194.159556,69.1103333 193.684723,72.216 193.684723,75.142 C193.684723,79.146 194.737056,82.1746667 196.841723,84.228 C198.946389,86.2813333 202.000723,87.308 206.004723,87.308 Z M209.084723,80.378 C207.544723,80.378 206.505223,79.9416667 205.966223,79.069 C205.427223,78.1963333 205.157723,76.5536667 205.157723,74.141 C205.157723,69.675 206.248556,64.9523333 208.430223,59.973 C210.611889,54.9936667 212.934723,52.504 215.398723,52.504 C216.374056,52.504 217.079889,52.8376667 217.516223,53.505 C217.952556,54.1723333 218.222056,55.3273333 218.324723,56.97 C217.554723,57.3293333 216.964389,57.8683333 216.553723,58.587 C216.143056,59.3056667 215.937723,60.1526667 215.937723,61.128 C215.937723,62.052 216.104556,62.7835 216.438223,63.3225 C216.771889,63.8615 217.298056,64.208 218.016723,64.362 C217.400723,68.8793333 216.232889,72.678 214.513223,75.758 C212.793556,78.838 210.984056,80.378 209.084723,80.378 Z M237.714902,87 L243.874902,57.74 C245.209569,56.508 246.261902,55.7123333 247.031902,55.353 C247.801902,54.9936667 248.623235,54.814 249.495902,54.814 C249.855235,54.814 250.137569,54.9295 250.342902,55.1605 C250.548235,55.3915 250.727902,55.9176667 250.881902,56.739 C251.087235,58.0223333 251.433735,58.8693333 251.921402,59.28 C252.409069,59.6906667 253.089235,59.896 253.961902,59.896 C255.604569,59.896 256.939235,59.357 257.965902,58.279 C258.992569,57.201 259.505902,55.8663333 259.505902,54.275 C259.505902,52.6323333 259.018235,51.2591667 258.042902,50.1555 C257.067569,49.0518333 255.784235,48.5 254.192902,48.5 C252.858235,48.5 251.536402,48.8208333 250.227402,49.4625 C248.918402,50.1041667 247.134569,51.3746667 244.875902,53.274 L244.875902,53.274 L245.876902,48.5 L234.788902,48.5 L226.626902,87 L237.714902,87 Z M270.349082,87.462 C274.507082,87.462 278.331415,86.2941667 281.822082,83.9585 C285.312748,81.6228333 288.546748,78.0423333 291.524082,73.217 L291.524082,73.217 L288.906082,73.217 C286.288082,76.1943333 283.965248,78.2348333 281.937582,79.3385 C279.909915,80.4421667 277.689748,80.994 275.277082,80.994 C273.172415,80.994 271.722248,80.5063333 270.926582,79.531 C270.130915,78.5556667 269.733082,76.8873333 269.733082,74.526 C269.733082,74.218 269.745915,73.8458333 269.771582,73.4095 C269.797248,72.9731667 269.835748,72.3186667 269.887082,71.446 C274.712415,71.1893333 278.870415,69.4825 282.361082,66.3255 C285.851748,63.1685 287.597082,59.4596667 287.597082,55.199 C287.597082,52.6836667 286.891248,50.8228333 285.479582,49.6165 C284.067915,48.4101667 281.950415,47.807 279.127082,47.807 C275.841748,47.807 272.877248,48.5898333 270.233582,50.1555 C267.589915,51.7211667 265.318415,54.044 263.419082,57.124 C261.879082,59.6906667 260.647082,62.6166667 259.723082,65.902 C258.799082,69.1873333 258.337082,72.293 258.337082,75.219 C258.337082,79.2743333 259.350915,82.3286667 261.378582,84.382 C263.406248,86.4353333 266.396415,87.462 270.349082,87.462 Z M270.503082,67.75 C271.375748,63.3866667 272.697582,59.6521667 274.468582,56.5465 C276.239582,53.4408333 277.997748,51.888 279.743082,51.888 C280.410415,51.888 280.898082,52.1446667 281.206082,52.658 C281.514082,53.1713333 281.668082,53.967 281.668082,55.045 C281.668082,58.2276667 280.551582,61.0895 278.318582,63.6305 C276.085582,66.1715 273.480415,67.5446667 270.503082,67.75 Z" id="SetScore"></path>
            </g>
        </g>
    </g>
</svg>