<svg width="100" height="100" viewBox="0 0 100 100" fill="none" xmlns="http://www.w3.org/2000/svg">
<rect width="100" height="100" rx="8" fill="#F6F9FE"/>
<path d="M42.0033 82.6648C38.7033 82.6648 35.6376 82.3697 32.8061 81.7796C29.9854 81.1305 27.5765 80.3634 25.5793 79.4782C23.5821 78.5931 22.144 77.7669 21.2651 76.9998L24.1788 61.1554C26.7658 62.7487 30.119 64.2535 34.2386 65.6698C38.369 67.027 43.1042 67.7056 48.4442 67.7056C50.6042 67.7056 52.2431 67.4401 53.3607 66.909C54.5492 66.3189 55.2737 65.3157 55.5342 63.8994C55.8163 62.3652 54.8496 61.0964 52.6341 60.0933C50.4894 59.0311 47.0082 57.7328 42.1903 56.1986C38.4582 54.9593 35.3178 53.6021 32.7691 52.1268C30.2912 50.5926 28.5085 48.7042 27.4209 46.4618C26.4041 44.1604 26.2212 41.2394 26.8723 37.6988C27.5451 34.0401 29.1128 30.7355 31.5754 27.785C34.038 24.8345 37.4667 22.5036 41.8614 20.7923C46.2561 19.081 51.6334 18.2253 57.9934 18.2253C59.9134 18.2253 61.9371 18.3138 64.0646 18.4909C66.2629 18.6089 68.0003 18.7859 69.2769 19.0219L78.0959 26.3688L72.6 37.1677L52.328 31.4142C49.868 31.4142 47.9458 31.9157 46.5613 32.9189C45.2368 33.9221 44.4444 35.1318 44.1839 36.5481C43.8692 38.2594 44.6097 39.6166 46.4052 40.6198C48.2007 41.623 50.8662 42.6262 54.4017 43.6293C59.9887 45.2226 64.2232 46.9929 67.1051 48.9403C69.987 50.8876 71.86 53.1005 72.7243 55.579C73.5993 57.9984 73.7547 60.7424 73.1904 63.8109C72.1487 69.4759 68.9977 74.0492 63.7374 77.5309C58.488 80.9535 51.2433 82.6648 42.0033 82.6648Z" fill="#052665"/>
<rect width="4" height="76" transform="matrix(1 0 -0.180862 0.983508 49.7456 13.9175)" fill="#052665"/>
<rect width="4" height="76" transform="matrix(1 0 -0.180862 0.983508 49.7456 13.9175)" fill="#052665"/>
<rect width="4" height="76" transform="matrix(1 0 -0.180862 0.983508 49.7456 13.9175)" fill="#052665"/>
<rect width="4" height="76" transform="matrix(1 0 -0.180862 0.983508 49.7456 13.9175)" fill="#052665"/>
<rect width="4" height="76" transform="matrix(1 0 -0.180862 0.983508 49.7456 13.9175)" fill="#052665"/>
<rect width="4" height="76" transform="matrix(1 0 -0.180862 0.983508 49.7456 13.9175)" fill="#052665"/>
<rect width="4" height="76" transform="matrix(1 0 -0.180862 0.983508 59.7456 13.9175)" fill="#052665"/>
<rect width="4" height="76" transform="matrix(1 0 -0.180862 0.983508 59.7456 13.9175)" fill="#052665"/>
<rect width="4" height="76" transform="matrix(1 0 -0.180862 0.983508 59.7456 13.9175)" fill="#052665"/>
<rect width="4" height="76" transform="matrix(1 0 -0.180862 0.983508 59.7456 13.9175)" fill="#052665"/>
<rect width="4" height="76" transform="matrix(1 0 -0.180862 0.983508 59.7456 13.9175)" fill="#052665"/>
<rect width="4" height="76" transform="matrix(1 0 -0.180862 0.983508 59.7456 13.9175)" fill="#052665"/>
</svg>
