<svg width="124" height="37" viewBox="0 0 124 37" fill="none" xmlns="http://www.w3.org/2000/svg">
<path d="M21.3158 36.9297L24.8941 19.8608L24.9764 16.4157L26.3689 14.5052H31.1369L30.8545 15.8519L31.1417 16.0085C31.1417 16.0085 31.3665 15.8519 31.8162 15.5387C32.2658 15.2255 32.852 14.9228 33.5746 14.6305C34.3229 14.3173 35.1451 14.1607 36.0411 14.1607C37.9398 14.1607 39.2977 14.7558 40.1148 15.9459C40.9533 17.136 41.1034 19.0152 40.565 21.5833C40.1623 23.5042 39.5589 25.0598 38.7547 26.2499C37.9763 27.4191 37.0736 28.2648 36.0469 28.7868C35.0201 29.3087 33.9414 29.5697 32.8107 29.5697C31.2747 29.5697 30.2108 29.4549 29.619 29.2252C29.0528 28.9747 28.7698 28.8494 28.7698 28.8494L27.0758 36.9297H21.3158ZM30.9902 25.279C31.8009 25.279 32.5107 24.9971 33.1195 24.4334C33.7497 23.8696 34.1852 23.0136 34.4259 21.8652C34.6623 20.7377 34.6325 19.913 34.3366 19.391C34.0407 18.869 33.4981 18.608 32.7088 18.608L30.7789 19.2657L29.6036 24.8719C29.6036 24.8719 29.6949 24.9449 29.8776 25.0911C30.086 25.2164 30.4569 25.279 30.9902 25.279Z" fill="#052665"/>
<path d="M48.6356 29.6324C46.9929 29.6324 45.5819 29.3923 44.4026 28.912C43.2233 28.4318 42.3892 27.6279 41.9002 26.5005C41.4112 25.373 41.3681 23.8488 41.7708 21.9279C42.0597 20.5498 42.5416 19.3701 43.2167 18.3888C43.9131 17.4074 44.7301 16.614 45.6677 16.0085C46.6097 15.3821 47.6105 14.9332 48.67 14.6618C49.734 14.3695 50.7993 14.2233 51.866 14.2233C53.7006 14.2233 55.0714 14.4008 55.9783 14.7558C56.9066 15.1107 57.5088 15.3926 57.7851 15.6014L58.3411 20.5811L57.294 22.5229H47.374C47.3614 23.2955 47.6204 23.9427 48.151 24.4647C48.6815 24.9867 49.6828 25.2477 51.1548 25.2477C52.3068 25.2477 53.3251 25.1224 54.2096 24.8719C55.0941 24.6213 55.7908 24.4021 56.2995 24.2142L55.4197 28.4109C54.7096 28.745 53.7204 29.0373 52.4518 29.2879C51.209 29.5175 49.9369 29.6324 48.6356 29.6324ZM47.8262 20.5185L52.3736 19.8921L52.3679 18.5454C52.2361 18.4619 52.0252 18.3992 51.7353 18.3575C51.4667 18.3157 51.2257 18.2948 51.0124 18.2948C50.4151 18.2948 49.8875 18.4201 49.4296 18.6707C48.9931 18.9212 48.631 19.224 48.3432 19.5789C48.0812 19.913 47.9089 20.2262 47.8262 20.5185Z" fill="#052665"/>
<path d="M58.865 29.3192L60.8413 19.8921L60.9235 16.447L62.316 14.5365H67.084L66.8017 15.8833L67.0503 16.0712C67.3288 15.8624 67.6991 15.6223 68.1613 15.3508C68.6493 15.0585 69.216 14.7975 69.8615 14.5678C70.507 14.3382 71.203 14.2233 71.9497 14.2233C73.8697 14.2233 75.1981 14.7558 75.9349 15.8206C76.6716 16.8855 76.8386 18.3783 76.436 20.2993L75.6021 24.2768L75.6175 27.4087L74.545 29.3192H68.785L70.5052 21.1136C70.6716 20.3201 70.6172 19.7146 70.3421 19.297C70.0926 18.8586 69.5946 18.6393 68.8479 18.6393L66.7392 19.2344L64.625 29.3192H58.865Z" fill="#052665"/>
<path d="M82.8769 29.6324C81.8742 29.6324 80.9561 29.3818 80.1224 28.8807C79.3102 28.3796 78.7192 27.5862 78.3494 26.5005C77.9797 25.4147 77.9787 23.9949 78.3464 22.241C78.7535 20.2993 79.3675 18.7437 80.1887 17.5745C81.0311 16.4052 81.9764 15.5596 83.0245 15.0376C84.077 14.4948 85.1045 14.2233 86.1072 14.2233C87.6219 14.2233 88.6623 14.3486 89.2284 14.5992C89.8159 14.8497 90.1096 14.975 90.1096 14.975L91.0306 9.05567L91.7445 7.17652H97.5365L93.945 24.3081L93.9285 27.44L92.888 29.3505H87.416L87.7377 27.8159L87.4505 27.6593C87.4505 27.6593 87.2555 27.8263 86.8654 28.1604C86.4798 28.4736 85.9426 28.7972 85.2539 29.1313C84.5652 29.4653 83.7729 29.6324 82.8769 29.6324ZM86.2026 25.2164L88.0546 24.7779L89.0132 20.2053C89.1138 19.7251 89.0326 19.3492 88.7695 19.0778C88.5108 18.7855 88.1148 18.6393 87.5814 18.6393C86.7921 18.6393 86.1401 18.9003 85.6253 19.4223C85.1149 19.9234 84.7372 20.7586 84.492 21.9279C84.2513 23.0762 84.3109 23.9114 84.6708 24.4334C85.0307 24.9554 85.5413 25.2164 86.2026 25.2164Z" fill="#052665"/>
<path d="M96.4445 29.3192L100.011 12.1563L100.027 9.02435L101.093 7.1452H106.853L102.205 29.3192H96.4445Z" fill="#052665"/>
<path d="M105.434 36.9297L101.25 35.3638L103.509 30.6972L107.726 31.95C108.643 31.95 109.355 31.7099 109.861 31.2296C110.384 30.7703 110.84 30.123 111.228 29.2879H107.932L106.658 18.5767L106.903 14.5052H112.983L112.576 24.8405H113.216L117.143 14.5052H123.223C123.223 14.5052 123.078 14.8393 122.789 15.5074C122.525 16.1547 122.152 17.0212 121.668 18.1069C121.206 19.1926 120.666 20.3932 120.049 21.7086C119.458 23.0031 118.841 24.3185 118.198 25.6548C117.559 26.9702 116.932 28.1812 116.316 29.2879C115.377 31.0209 114.384 32.4511 113.337 33.5786C112.311 34.7061 111.165 35.5413 109.899 36.0841C108.629 36.6479 107.141 36.9297 105.434 36.9297Z" fill="#052665"/>
<path d="M9.1228 30.3513C7.67112 30.3513 6.32249 30.2211 5.07692 29.9605C3.83611 29.674 2.77642 29.3353 1.89784 28.9445C1.01925 28.5537 0.386642 28.1889 0 27.8503L1.28174 20.8551C2.41977 21.5586 3.89488 22.2229 5.70709 22.8482C7.52407 23.4474 9.60709 23.747 11.9562 23.747C12.9064 23.747 13.6273 23.6297 14.1189 23.3953C14.6418 23.1347 14.9605 22.6918 15.0751 22.0666C15.1992 21.3892 14.7739 20.8291 13.7993 20.3862C12.8559 19.9172 11.3244 19.3441 9.20506 18.6667C7.5633 18.1196 6.18182 17.5204 5.06064 16.8691C3.97063 16.1917 3.18639 15.358 2.70794 14.368C2.26066 13.352 2.18023 12.0624 2.46665 10.4992C2.76262 8.88395 3.45225 7.425 4.53555 6.12237C5.61885 4.81974 7.12712 3.79066 9.06036 3.03513C10.9936 2.2796 13.3591 1.90184 16.1569 1.90184C17.0015 1.90184 17.8917 1.94092 18.8276 2.01908C19.7946 2.07118 20.5589 2.14934 21.1205 2.25355L25 5.4971L22.5824 10.2647L13.6647 7.72461C12.5825 7.72461 11.7369 7.94605 11.1279 8.38895C10.5452 8.83184 10.1966 9.36592 10.0821 9.99118C9.94363 10.7467 10.2693 11.3459 11.0592 11.7888C11.849 12.2317 13.0216 12.6746 14.5769 13.1175C17.0346 13.8209 18.8974 14.6025 20.1651 15.4622C21.4329 16.322 22.2568 17.2989 22.637 18.3932C23.022 19.4613 23.0903 20.6728 22.8421 22.0275C22.3838 24.5286 20.9977 26.5476 18.6837 28.0847C16.3745 29.5958 13.1875 30.3513 9.1228 30.3513Z" fill="#052665"/>
<path d="M12.5286 0H14.2883L8.24156 33H6.48195L12.5286 0Z" fill="#052665"/>
<path d="M12.5286 0H14.2883L8.24156 33H6.48195L12.5286 0Z" fill="#052665"/>
<path d="M12.5286 0H14.2883L8.24156 33H6.48195L12.5286 0Z" fill="#052665"/>
<path d="M12.5286 0H14.2883L8.24156 33H6.48195L12.5286 0Z" fill="#052665"/>
<path d="M12.5286 0H14.2883L8.24156 33H6.48195L12.5286 0Z" fill="#052665"/>
<path d="M12.5286 0H14.2883L8.24156 33H6.48195L12.5286 0Z" fill="#052665"/>
<path d="M16.9277 0H18.6873L12.6406 33H10.881L16.9277 0Z" fill="#052665"/>
<path d="M16.9277 0H18.6873L12.6406 33H10.881L16.9277 0Z" fill="#052665"/>
<path d="M16.9277 0H18.6873L12.6406 33H10.881L16.9277 0Z" fill="#052665"/>
<path d="M16.9277 0H18.6873L12.6406 33H10.881L16.9277 0Z" fill="#052665"/>
<path d="M16.9277 0H18.6873L12.6406 33H10.881L16.9277 0Z" fill="#052665"/>
<path d="M16.9277 0H18.6873L12.6406 33H10.881L16.9277 0Z" fill="#052665"/>
</svg>
