<svg width="141" height="41" viewBox="0 0 141 41" fill="none" xmlns="http://www.w3.org/2000/svg">
<rect width="141" height="41" rx="8" fill="#B3BDD0"/>
<path d="M34.2014 37L37.4247 21.7474L37.4988 18.6689L38.7532 16.9617H43.0482L42.7939 18.1651L43.0526 18.305C43.0526 18.305 43.2551 18.1651 43.6602 17.8852C44.0652 17.6054 44.5932 17.3348 45.2442 17.0736C45.9183 16.7938 46.6589 16.6538 47.466 16.6538C49.1763 16.6538 50.3995 17.1856 51.1356 18.2491C51.891 19.3126 52.0261 20.9917 51.5412 23.2866C51.1784 25.0031 50.6348 26.3931 49.9104 27.4566C49.2092 28.5014 48.3961 29.2571 47.4712 29.7235C46.5463 30.19 45.5746 30.4232 44.5561 30.4232C43.1724 30.4232 42.2141 30.3206 41.6809 30.1153C41.1709 29.8914 40.9159 29.7795 40.9159 29.7795L39.39 37H34.2014ZM42.9162 26.589C43.6464 26.589 44.2858 26.3372 44.8342 25.8334C45.4019 25.3296 45.7942 24.5647 46.011 23.5385C46.224 22.531 46.1971 21.794 45.9306 21.3276C45.664 20.8611 45.1752 20.6279 44.4642 20.6279L42.7258 21.2156L41.6671 26.2252C41.6671 26.2252 41.7494 26.2905 41.9139 26.4211C42.1017 26.5331 42.4357 26.589 42.9162 26.589Z" fill="white"/>
<path d="M58.8112 30.4792C57.3315 30.4792 56.0604 30.2646 54.9981 29.8355C53.9358 29.4063 53.1844 28.688 52.7439 27.6805C52.3034 26.673 52.2646 25.311 52.6273 23.5945C52.8876 22.3631 53.3217 21.3089 53.9298 20.432C54.5571 19.5551 55.2931 18.8461 56.1377 18.305C56.9862 17.7453 57.8877 17.3442 58.8422 17.1016C59.8006 16.8404 60.7603 16.7098 61.7211 16.7098C63.3738 16.7098 64.6086 16.8684 65.4256 17.1856C66.2617 17.5028 66.8042 17.7546 67.0531 17.9412L67.554 22.3911L66.6108 24.1262H57.6748C57.6634 24.8166 57.8967 25.3949 58.3746 25.8614C58.8526 26.3278 59.7545 26.561 61.0805 26.561C62.1182 26.561 63.0355 26.4491 63.8323 26.2252C64.6291 26.0013 65.2566 25.8054 65.7149 25.6375L64.9223 29.3877C64.2827 29.6862 63.3916 29.9474 62.2489 30.1713C61.1293 30.3765 59.9835 30.4792 58.8112 30.4792ZM58.0821 22.3351L62.1784 21.7754L62.1732 20.5719C62.0545 20.4973 61.8646 20.4413 61.6034 20.404C61.3615 20.3667 61.1444 20.3481 60.9522 20.3481C60.4142 20.3481 59.9389 20.46 59.5264 20.6839C59.1332 20.9078 58.807 21.1783 58.5478 21.4955C58.3118 21.794 58.1565 22.0739 58.0821 22.3351Z" fill="white"/>
<path d="M68.0259 30.1993L69.8062 21.7754L69.8802 18.6969L71.1346 16.9897H75.4296L75.1753 18.1931L75.3993 18.361C75.6501 18.1744 75.9837 17.9599 76.4001 17.7173C76.8396 17.4561 77.3501 17.2229 77.9316 17.0177C78.513 16.8124 79.1401 16.7098 79.8127 16.7098C81.5422 16.7098 82.7388 17.1856 83.4025 18.1371C84.0662 19.0887 84.2166 20.4227 83.8539 22.1392L83.1028 25.6935L83.1166 28.4921L82.1505 30.1993H76.9619L78.5115 22.8668C78.6613 22.1578 78.6123 21.6168 78.3645 21.2436C78.1398 20.8518 77.6912 20.6559 77.0186 20.6559L75.119 21.1876L73.2145 30.1993H68.0259Z" fill="white"/>
<path d="M89.6559 30.4792C88.7527 30.4792 87.9256 30.2553 87.1747 29.8075C86.443 29.3597 85.9106 28.6507 85.5776 27.6805C85.2445 26.7103 85.2436 25.4416 85.5748 23.8743C85.9415 22.1392 86.4947 20.7492 87.2344 19.7044C87.9932 18.6595 88.8448 17.9039 89.7889 17.4375C90.737 16.9524 91.6626 16.7098 92.5658 16.7098C93.9302 16.7098 94.8674 16.8218 95.3774 17.0456C95.9066 17.2695 96.1712 17.3815 96.1712 17.3815L97.0008 12.092L97.6439 10.4129H102.861L99.6262 25.7215L99.6112 28.5201L98.6739 30.2273H93.7447L94.0345 28.8559L93.7758 28.716C93.7758 28.716 93.6002 28.8653 93.2488 29.1638C92.9014 29.4437 92.4175 29.7328 91.7972 30.0314C91.1768 30.3299 90.463 30.4792 89.6559 30.4792ZM92.6518 26.5331L94.32 26.1413L95.1835 22.0552C95.2742 21.6261 95.201 21.2903 94.964 21.0477C94.731 20.7865 94.3742 20.6559 93.8938 20.6559C93.1828 20.6559 92.5954 20.8891 92.1317 21.3556C91.6719 21.8033 91.3317 22.5497 91.1108 23.5945C90.894 24.6207 90.9477 25.367 91.2719 25.8334C91.5961 26.2998 92.056 26.5331 92.6518 26.5331Z" fill="white"/>
<path d="M101.878 30.1993L105.09 14.8627L105.105 12.0641L106.065 10.3849H111.254L107.066 30.1993H101.878Z" fill="white"/>
<path d="M109.976 37L106.207 35.6007L108.241 31.4307L112.04 32.5502C112.866 32.5502 113.508 32.3356 113.963 31.9065C114.434 31.496 114.845 30.9176 115.195 30.1713H112.226L111.078 20.5999L111.299 16.9617H116.776L116.409 26.1972H116.986L120.523 16.9617H126C126 16.9617 125.87 17.2602 125.609 17.8573C125.371 18.4356 125.035 19.2099 124.599 20.1801C124.183 21.1503 123.697 22.2231 123.141 23.3986C122.608 24.5554 122.052 25.7308 121.473 26.9249C120.898 28.1003 120.333 29.1824 119.778 30.1713C118.932 31.7199 118.037 32.9979 117.094 34.0055C116.17 35.013 115.138 35.7593 113.998 36.2444C112.854 36.7481 111.513 37 109.976 37Z" fill="white"/>
<path d="M23.2179 31.1216C21.9102 31.1216 20.6953 31.0052 19.5733 30.7724C18.4556 30.5163 17.501 30.2137 16.7096 29.8645C15.9181 29.5153 15.3483 29.1893 15 28.8867L16.1546 22.6359C17.1797 23.2645 18.5085 23.8581 20.141 24.4169C21.7777 24.9523 23.6541 25.22 25.7702 25.22C26.6261 25.22 27.2755 25.1153 27.7184 24.9057C28.1894 24.6729 28.4765 24.2772 28.5797 23.7184C28.6915 23.1132 28.3084 22.6126 27.4305 22.2169C26.5806 21.7978 25.2011 21.2857 23.292 20.6804C21.8131 20.1915 20.5686 19.656 19.5587 19.074C18.5768 18.4687 17.8703 17.7238 17.4393 16.8391C17.0364 15.9312 16.964 14.7788 17.222 13.382C17.4886 11.9386 18.1098 10.6349 19.0856 9.47088C20.0615 8.30686 21.4201 7.38729 23.1616 6.71216C24.9031 6.03703 27.0339 5.69946 29.5542 5.69946C30.315 5.69946 31.117 5.73438 31.96 5.80423C32.8311 5.85079 33.5196 5.92063 34.0255 6.01375L37.5201 8.91215L35.3423 13.1725L27.3092 10.9026C26.3344 10.9026 25.5727 11.1005 25.0241 11.4963C24.4992 11.892 24.1852 12.3693 24.082 12.928C23.9573 13.6031 24.2507 14.1386 24.9622 14.5344C25.6737 14.9301 26.7299 15.3259 28.1309 15.7217C30.3449 16.3502 32.0228 17.0486 33.1648 17.8169C34.3068 18.5851 35.0491 19.4581 35.3915 20.4359C35.7383 21.3904 35.7999 22.473 35.5763 23.6835C35.1635 25.9184 33.9148 27.7227 31.8304 29.0962C29.7502 30.4465 26.8794 31.1216 23.2179 31.1216Z" fill="white"/>
<path d="M26.2859 4H27.8709L22.424 33.4884H20.839L26.2859 4Z" fill="white"/>
<path d="M30.2485 4H31.8336L26.3867 33.4884H24.8016L30.2485 4Z" fill="white"/>
</svg>
