<svg width="132" height="41" viewBox="0 0 132 41" fill="none" xmlns="http://www.w3.org/2000/svg">
<rect width="132" height="41" rx="2" fill="#052665"/>
<path d="M29.2014 37L32.4247 21.7474L32.4988 18.6689L33.7532 16.9617H38.0482L37.7939 18.1651L38.0526 18.305C38.0526 18.305 38.2551 18.1651 38.6602 17.8852C39.0652 17.6054 39.5932 17.3348 40.2442 17.0736C40.9183 16.7938 41.6589 16.6538 42.466 16.6538C44.1763 16.6538 45.3995 17.1856 46.1356 18.2491C46.891 19.3126 47.0261 20.9917 46.5412 23.2866C46.1784 25.0031 45.6348 26.3931 44.9104 27.4566C44.2092 28.5014 43.3961 29.2571 42.4712 29.7235C41.5463 30.19 40.5746 30.4232 39.5561 30.4232C38.1724 30.4232 37.2141 30.3206 36.6809 30.1153C36.1709 29.8914 35.9159 29.7795 35.9159 29.7795L34.39 37H29.2014ZM37.9162 26.589C38.6464 26.589 39.2858 26.3372 39.8342 25.8334C40.4019 25.3296 40.7942 24.5647 41.011 23.5385C41.224 22.531 41.1971 21.794 40.9306 21.3276C40.664 20.8611 40.1752 20.6279 39.4642 20.6279L37.7258 21.2156L36.6671 26.2252C36.6671 26.2252 36.7494 26.2905 36.9139 26.4211C37.1017 26.5331 37.4357 26.589 37.9162 26.589Z" fill="white"/>
<path d="M53.8112 30.4792C52.3315 30.4792 51.0604 30.2646 49.9981 29.8355C48.9358 29.4063 48.1844 28.688 47.7439 27.6805C47.3034 26.673 47.2646 25.311 47.6273 23.5945C47.8876 22.3631 48.3217 21.3089 48.9298 20.432C49.5571 19.5551 50.2931 18.8461 51.1377 18.305C51.9862 17.7453 52.8877 17.3442 53.8422 17.1016C54.8006 16.8404 55.7603 16.7098 56.7211 16.7098C58.3738 16.7098 59.6086 16.8684 60.4256 17.1856C61.2617 17.5028 61.8042 17.7546 62.0531 17.9412L62.554 22.3911L61.6108 24.1262H52.6748C52.6634 24.8166 52.8967 25.3949 53.3746 25.8614C53.8526 26.3278 54.7545 26.561 56.0805 26.561C57.1182 26.561 58.0355 26.4491 58.8323 26.2252C59.6291 26.0013 60.2566 25.8054 60.7149 25.6375L59.9223 29.3877C59.2827 29.6862 58.3916 29.9474 57.2489 30.1713C56.1293 30.3765 54.9835 30.4792 53.8112 30.4792ZM53.0821 22.3351L57.1784 21.7754L57.1732 20.5719C57.0545 20.4973 56.8646 20.4413 56.6034 20.404C56.3615 20.3667 56.1444 20.3481 55.9522 20.3481C55.4142 20.3481 54.9389 20.46 54.5264 20.6839C54.1332 20.9078 53.807 21.1783 53.5478 21.4955C53.3118 21.794 53.1565 22.0739 53.0821 22.3351Z" fill="white"/>
<path d="M63.0259 30.1993L64.8062 21.7754L64.8802 18.6969L66.1346 16.9897H70.4296L70.1753 18.1931L70.3993 18.361C70.6501 18.1744 70.9837 17.9599 71.4001 17.7173C71.8396 17.4561 72.3501 17.2229 72.9316 17.0177C73.513 16.8124 74.1401 16.7098 74.8127 16.7098C76.5422 16.7098 77.7388 17.1856 78.4025 18.1371C79.0662 19.0887 79.2166 20.4227 78.8539 22.1392L78.1028 25.6935L78.1166 28.4921L77.1505 30.1993H71.9619L73.5115 22.8668C73.6613 22.1578 73.6123 21.6168 73.3645 21.2436C73.1398 20.8518 72.6912 20.6559 72.0186 20.6559L70.119 21.1876L68.2145 30.1993H63.0259Z" fill="white"/>
<path d="M84.6559 30.4792C83.7527 30.4792 82.9256 30.2553 82.1747 29.8075C81.443 29.3597 80.9106 28.6507 80.5776 27.6805C80.2445 26.7103 80.2436 25.4416 80.5748 23.8743C80.9415 22.1392 81.4947 20.7492 82.2344 19.7044C82.9932 18.6595 83.8448 17.9039 84.7889 17.4375C85.737 16.9524 86.6626 16.7098 87.5658 16.7098C88.9302 16.7098 89.8674 16.8218 90.3774 17.0456C90.9066 17.2695 91.1712 17.3815 91.1712 17.3815L92.0008 12.092L92.6439 10.4129H97.8614L94.6262 25.7215L94.6112 28.5201L93.6739 30.2273H88.7447L89.0345 28.8559L88.7758 28.716C88.7758 28.716 88.6002 28.8653 88.2488 29.1638C87.9014 29.4437 87.4175 29.7328 86.7972 30.0314C86.1768 30.3299 85.463 30.4792 84.6559 30.4792ZM87.6518 26.5331L89.32 26.1413L90.1835 22.0552C90.2742 21.6261 90.201 21.2903 89.964 21.0477C89.731 20.7865 89.3742 20.6559 88.8938 20.6559C88.1828 20.6559 87.5954 20.8891 87.1317 21.3556C86.6719 21.8033 86.3317 22.5497 86.1108 23.5945C85.894 24.6207 85.9477 25.367 86.2719 25.8334C86.5961 26.2998 87.056 26.5331 87.6518 26.5331Z" fill="white"/>
<path d="M96.8777 30.1993L100.09 14.8627L100.105 12.0641L101.065 10.3849H106.254L102.066 30.1993H96.8777Z" fill="white"/>
<path d="M104.976 37L101.207 35.6007L103.241 31.4307L107.04 32.5502C107.866 32.5502 108.508 32.3356 108.963 31.9065C109.434 31.496 109.845 30.9176 110.195 30.1713H107.226L106.078 20.5999L106.299 16.9617H111.776L111.409 26.1972H111.986L115.523 16.9617H121C121 16.9617 120.87 17.2602 120.609 17.8573C120.371 18.4356 120.035 19.2099 119.599 20.1801C119.183 21.1503 118.697 22.2231 118.141 23.3986C117.608 24.5554 117.052 25.7308 116.473 26.9249C115.898 28.1003 115.333 29.1824 114.778 30.1713C113.932 31.7199 113.037 32.9979 112.094 34.0055C111.17 35.013 110.138 35.7593 108.998 36.2444C107.854 36.7481 106.513 37 104.976 37Z" fill="white"/>
<path d="M18.2179 31.1216C16.9102 31.1216 15.6953 31.0052 14.5733 30.7724C13.4556 30.5163 12.501 30.2137 11.7096 29.8645C10.9181 29.5153 10.3483 29.1893 10 28.8867L11.1546 22.6359C12.1797 23.2645 13.5085 23.8581 15.141 24.4169C16.7777 24.9523 18.6541 25.22 20.7702 25.22C21.6261 25.22 22.2755 25.1153 22.7184 24.9057C23.1894 24.6729 23.4765 24.2772 23.5797 23.7184C23.6915 23.1132 23.3084 22.6126 22.4305 22.2169C21.5806 21.7978 20.2011 21.2857 18.292 20.6804C16.8131 20.1915 15.5686 19.656 14.5587 19.074C13.5768 18.4687 12.8703 17.7238 12.4393 16.8391C12.0364 15.9312 11.964 14.7788 12.222 13.382C12.4886 11.9386 13.1098 10.6349 14.0856 9.47088C15.0615 8.30686 16.4201 7.38729 18.1616 6.71216C19.9031 6.03703 22.0339 5.69946 24.5542 5.69946C25.315 5.69946 26.117 5.73438 26.96 5.80423C27.8311 5.85079 28.5196 5.92063 29.0255 6.01375L32.5201 8.91215L30.3423 13.1725L22.3092 10.9026C21.3344 10.9026 20.5727 11.1005 20.0241 11.4963C19.4992 11.892 19.1852 12.3693 19.082 12.928C18.9573 13.6031 19.2507 14.1386 19.9622 14.5344C20.6737 14.9301 21.7299 15.3259 23.1309 15.7217C25.3449 16.3502 27.0228 17.0486 28.1648 17.8169C29.3068 18.5851 30.0491 19.4581 30.3915 20.4359C30.7383 21.3904 30.7999 22.473 30.5763 23.6835C30.1635 25.9184 28.9148 27.7227 26.8304 29.0962C24.7502 30.4465 21.8794 31.1216 18.2179 31.1216Z" fill="white"/>
<path d="M21.2859 4H22.8709L17.424 33.4884H15.839L21.2859 4Z" fill="white"/>
<path d="M25.2485 4H26.8336L21.3867 33.4884H19.8016L25.2485 4Z" fill="white"/>
</svg>
